<?xml version="1.0" standalone="no"?>
<!DOCTYPE svg PUBLIC "-//W3C//DTD SVG 20010904//EN"
 "http://www.w3.org/TR/2001/REC-SVG-20010904/DTD/svg10.dtd">
<svg version="1.0" xmlns="http://www.w3.org/2000/svg"
 width="214.000000pt" height="214.000000pt" viewBox="0 0 214.000000 214.000000"
 preserveAspectRatio="xMidYMid meet">
<metadata>
Created by potrace 1.11, written by Peter Selinger 2001-2013
</metadata>
<g transform="translate(0.000000,214.000000) scale(0.100000,-0.100000)"
fill="#000000" stroke="none">
<path d="M931 1787 c-27 -13 -63 -46 -92 -83 -44 -55 -53 -62 -106 -74 -75
-18 -150 -52 -190 -87 -36 -33 -103 -138 -103 -165 0 -48 -45 -135 -97 -186
-29 -29 -63 -72 -74 -94 -29 -57 -32 -149 -6 -208 10 -25 21 -60 23 -78 7 -54
44 -120 87 -157 43 -37 88 -54 211 -81 60 -13 94 -27 144 -62 87 -59 124 -74
191 -75 133 -2 249 100 267 231 5 43 10 52 23 47 94 -36 222 10 266 96 16 30
62 203 75 279 4 25 17 65 28 90 45 96 9 229 -76 284 -20 13 -63 32 -94 42 -79
24 -121 62 -158 142 -18 37 -44 80 -58 96 -62 67 -177 86 -261 43z"/>
</g>
</svg>
